<svg width="174" height="50" viewBox="0 0 174 50" fill="none" xmlns="http://www.w3.org/2000/svg">
<path fill-rule="evenodd" clip-rule="evenodd" d="M164.41 28.7258L169.046 29.8693L169.267 29.5836C170.737 27.6758 171.851 25.4566 172.487 22.9976C175.043 13.1068 168.908 3.06401 158.783 0.566512C148.657 -1.93099 138.377 4.06251 135.82 13.9534C133.263 23.8442 139.399 33.887 149.524 36.3845C151.79 36.9433 154.065 37.0771 156.259 36.8365C156.544 36.8054 156.827 36.7679 157.108 36.7243L157.467 36.6686L158.653 32.0823L162.181 32.9525L161.047 37.3383L166.713 38.7361L168.143 33.2016L163.547 32.0675L164.41 28.7258ZM158.253 31.4283L158.253 31.4309L157.022 36.1924C156.749 36.2348 156.474 36.2711 156.198 36.3014C155.932 36.3306 155.664 36.3541 155.396 36.3718C155.664 36.3541 155.931 36.3305 156.197 36.3013C156.473 36.2711 156.748 36.2347 157.021 36.1923L158.252 31.4308L158.253 31.4283L158.253 31.4283ZM157.036 0.764335C157.573 0.848308 158.11 0.956157 158.647 1.08858C168.477 3.51327 174.434 13.2632 171.952 22.8657C171.334 25.2539 170.253 27.4081 168.826 29.2596L168.826 29.2596C170.254 27.4081 171.335 25.254 171.952 22.8658C174.434 13.2633 168.478 3.51333 158.648 1.08864C158.111 0.956178 157.573 0.848319 157.036 0.764335ZM166.313 38.0821L166.313 38.082L167.473 33.5918L167.474 33.5918L166.313 38.0821ZM164.011 28.0719L162.877 32.4578L162.877 32.4577L164.01 28.0718L164.011 28.0719ZM154.69 6.67738C149.074 6.42739 143.863 10.0523 142.433 15.5847C140.799 21.9073 144.721 28.327 151.194 29.9235C151.194 29.9236 151.194 29.9236 151.194 29.9236C144.722 28.3271 140.799 21.9074 142.434 15.5848C143.864 10.0525 149.074 6.42762 154.69 6.67738ZM154.418 25.1526L158.999 26.2829L160.161 21.7902L164.754 22.9235C164.99 22.3849 165.186 21.821 165.338 21.2344C166.898 15.2001 163.155 9.07318 156.977 7.5495C150.8 6.02581 144.528 9.68235 142.968 15.7166C141.409 21.7509 145.152 27.8778 151.329 29.4015C151.967 29.5588 152.605 29.6608 153.239 29.7108L154.418 25.1526ZM24.0739 5.04151L22.8597 0.564723L3.46246 5.58475L4.67662 10.0615L0.09375 11.2476L7.66105 39.1494L17.8926 36.5015L15.4643 27.5479L29.2129 23.9898L27.9987 19.513L32.5816 18.3269L28.6568 3.85546L24.0739 5.04151ZM8.05272 38.4908L8.05276 38.491L17.2185 36.1189L14.7902 27.1653L28.5388 23.6071L27.3246 19.1303L31.9075 17.9443L28.2651 4.51393L28.2646 4.51404L29.4787 8.99065L30.6929 13.4674L31.907 17.9442L27.3242 19.1303L28.5383 23.6071L23.9554 24.7931L19.3726 25.9792L14.7897 27.1652L16.0039 31.642L17.218 36.1188L12.6351 37.3048L8.05272 38.4908ZM23.6821 5.6998L22.468 1.22319L22.4676 1.22331L23.6817 5.69992L23.6821 5.6998ZM49.6972 11.8135L39.404 9.40437L36.9378 19.4593L41.5483 20.5384L40.4436 25.0421L45.0541 26.1212L44.2063 29.5776L39.5958 28.4985L38.4912 33.0023L33.8807 31.9232L31.4144 41.9781L41.7076 44.3872L43.917 35.3797L48.5274 36.4588L49.6321 31.9551L53.1704 32.7832L52.0657 37.287L56.6762 38.3661L54.4669 47.3736L64.76 49.7827L67.2263 39.7278L62.6158 38.6487L63.7205 34.145L59.11 33.0659L59.9578 29.6095L64.5682 30.6886L65.6729 26.1848L70.2834 27.2639L72.7496 17.209L62.4565 14.7999L60.2471 23.8074L55.6366 22.7283L54.532 27.232L50.9937 26.4039L52.0983 21.9001L47.4879 20.821L49.6972 11.8135ZM41.3 43.7381L41.2995 43.738L42.4041 39.2343L43.5088 34.7305L43.5093 34.7306L41.3 43.7381ZM48.1193 35.8096L49.224 31.3058L49.2245 31.3059L48.1198 35.8097L48.1193 35.8096ZM64.3524 49.1336L64.3519 49.1335L65.4566 44.6297L66.5612 40.126L66.5617 40.126L64.3524 49.1336ZM63.0559 34.5432L61.9513 39.0469L61.9508 39.0469L63.0554 34.5431L63.0559 34.5432ZM58.4454 33.4641L59.5501 28.9603L59.5496 28.9603L58.4449 33.464L58.4454 33.4641ZM64.1601 30.0394L65.2648 25.5356L65.2653 25.5357L64.1606 30.0394L64.1601 30.0394ZM69.8753 26.6147L69.8757 26.6147L72.0851 17.6072L72.0846 17.6072L70.9799 22.1109L69.8753 26.6147ZM50.3291 26.8021L51.4338 22.2984L51.4333 22.2983L50.3286 26.8021L50.3291 26.8021ZM46.8233 21.2193L49.0326 12.2117L49.0321 12.2117L47.9275 16.7154L46.8228 21.2192L46.8233 21.2193ZM75.2362 32.2801L76.0084 37.5074L104.982 33.4232L103.901 26.1049L87.1337 28.4685L100.498 6.51589L99.7313 1.3285L72.5716 5.15712L73.6407 12.3942L88.5521 10.2922L75.2362 32.2801ZM103.433 26.7149L104.357 32.967L76.4753 36.8974L76.4753 36.8975L104.357 32.9671L103.434 26.7148L103.433 26.7149ZM86.0698 29.1624L86.0693 29.1625L99.9237 6.40426L99.2639 1.93847L99.2644 1.93841L99.9242 6.40432L86.0698 29.1624ZM74.1075 11.7841L74.1076 11.7843L89.6121 9.59865L89.6122 9.59851L74.1075 11.7841ZM18.7076 7.5445L22.0677 19.9337L13.9677 22.03L10.6076 9.64077L18.7076 7.5445ZM13.576 22.6883L9.93357 9.25813L19.0989 6.88614L19.0988 6.88597L14.5159 8.07202L9.93307 9.25807L11.1472 13.7349L12.3614 18.2116L13.5755 22.6884L13.576 22.6883ZM121.606 46.5649C129.401 46.5649 135.719 40.3927 135.719 32.7789C135.719 25.1651 129.401 18.9929 121.606 18.9929C113.812 18.9929 107.494 25.1651 107.494 32.7789C107.494 40.3927 113.812 46.5649 121.606 46.5649ZM128.332 32.7789C128.332 36.4073 125.321 39.3488 121.606 39.3488C117.892 39.3488 114.881 36.4073 114.881 32.7789C114.881 29.1505 117.892 26.209 121.606 26.209C125.321 26.209 128.332 29.1505 128.332 32.7789ZM121.606 46.0264C129.096 46.0264 135.168 40.0953 135.168 32.7789C135.168 26.3771 130.519 21.0358 124.339 19.8006C130.519 21.036 135.167 26.3772 135.167 32.7788C135.167 40.0952 129.096 46.0263 121.606 46.0263C121.599 46.0263 121.591 46.0264 121.584 46.0264C121.592 46.0264 121.599 46.0264 121.606 46.0264ZM120.14 39.7429C116.824 39.0802 114.329 36.2141 114.329 32.7788C114.329 28.853 117.587 25.6704 121.606 25.6704C121.622 25.6704 121.638 25.6705 121.653 25.6706C121.638 25.6705 121.622 25.6705 121.606 25.6705C117.587 25.6705 114.329 28.853 114.329 32.7789C114.329 36.214 116.824 39.0801 120.14 39.7429Z" fill="#3F3F3F"/>
</svg>
