<svg width="26" height="18" viewBox="0 0 26 18" fill="none" xmlns="http://www.w3.org/2000/svg">
<rect x="0.5" y="1.54883" width="1.66666" height="1.54962" fill="#11A729"/>
<rect x="0.5" y="3.09961" width="1.66666" height="1.54962" fill="#11A729"/>
<rect x="0.5" y="4.64844" width="1.66666" height="1.54962" fill="#11A729"/>
<rect x="2.16797" y="4.64844" width="1.66666" height="1.54962" fill="#11A729"/>
<rect x="2.16797" y="6.19824" width="1.66666" height="1.54962" fill="#11A729"/>
<rect x="3.83203" y="6.19824" width="1.66666" height="1.54962" fill="#11A729"/>
<rect x="3.83203" y="7.74805" width="1.66666" height="1.54962" fill="#11A729"/>
<rect x="3.83203" y="9.29785" width="1.66666" height="1.54962" fill="#11A729"/>
<rect x="2.33203" y="9.29785" width="1.66666" height="1.54962" fill="#11A729"/>
<rect x="2.33203" y="10.8467" width="1.66666" height="1.54962" fill="#11A729"/>
<rect x="0.667969" y="10.8467" width="1.66666" height="1.54962" fill="#11A729"/>
<rect x="0.667969" y="12.3975" width="1.66666" height="1.54962" fill="#11A729"/>
<rect x="0.667969" y="13.9463" width="1.66666" height="1.54962" fill="#11A729"/>
<rect x="2.33203" y="13.9463" width="1.66666" height="1.54962" fill="#11A729"/>
<rect x="2.33203" y="15.4961" width="1.66666" height="1.54962" fill="#11A729"/>
<rect x="4" y="15.4961" width="1.66666" height="1.54962" fill="#11A729"/>
<rect x="5.66797" y="15.4961" width="1.66667" height="1.54962" fill="#11A729"/>
<rect x="7.33203" y="15.4961" width="1.66666" height="1.54962" fill="#11A729"/>
<rect x="9" y="15.4961" width="1.66667" height="1.54962" fill="#11A729"/>
<rect x="10.668" y="15.4961" width="1.66666" height="1.54962" fill="#11A729"/>
<rect x="12.332" y="15.4961" width="1.66667" height="1.54962" fill="#11A729"/>
<rect x="14" y="15.4961" width="1.66666" height="1.54962" fill="#11A729"/>
<rect x="15.668" y="15.4961" width="1.66667" height="1.54962" fill="#11A729"/>
<rect x="17.332" y="15.4961" width="1.66667" height="1.54962" fill="#11A729"/>
<rect x="19" y="15.4961" width="1.66666" height="1.54962" fill="#11A729"/>
<rect x="20.668" y="15.4961" width="1.66666" height="1.54962" fill="#11A729"/>
<rect x="22.332" y="15.4961" width="1.66666" height="1.54962" fill="#11A729"/>
<rect x="2.16797" y="1.54883" width="1.66666" height="1.54962" fill="#11A729"/>
<rect x="2.16797" width="1.66666" height="1.54962" fill="#11A729"/>
<rect x="3.83203" width="1.66666" height="1.54962" fill="#11A729"/>
<rect x="5.5" width="1.66666" height="1.54962" fill="#11A729"/>
<rect x="7.16797" width="1.66667" height="1.54962" fill="#11A729"/>
<rect x="8.83203" width="1.66667" height="1.54962" fill="#11A729"/>
<rect x="10.5" width="1.66666" height="1.54962" fill="#11A729"/>
<rect x="12.168" width="1.66667" height="1.54962" fill="#11A729"/>
<rect x="13.832" width="1.66667" height="1.54962" fill="#11A729"/>
<rect x="15.5" width="1.66666" height="1.54962" fill="#11A729"/>
<rect x="15.5" y="1.54883" width="1.66666" height="1.54962" fill="#11A729"/>
<rect x="15.5" y="4.64844" width="1.66666" height="1.54962" fill="#11A729"/>
<rect x="15.5" y="9.29785" width="1.66666" height="1.54962" fill="#11A729"/>
<rect x="15.5" y="6.19824" width="1.66666" height="1.54962" fill="#11A729"/>
<rect x="15.5" y="10.8467" width="1.66666" height="1.54962" fill="#11A729"/>
<rect x="15.5" y="13.9463" width="1.66666" height="1.54962" fill="#11A729"/>
<rect x="17.168" width="1.66666" height="1.54962" fill="#11A729"/>
<rect x="18.832" width="1.66666" height="1.54962" fill="#11A729"/>
<rect x="20.5" width="1.66666" height="1.54962" fill="#11A729"/>
<rect x="22.168" width="1.66667" height="1.54962" fill="#11A729"/>
<rect x="22.168" y="1.54883" width="1.66667" height="1.54962" fill="#11A729"/>
<rect x="22.168" y="4.64844" width="1.66667" height="1.54962" fill="#11A729"/>
<rect x="20.5" y="6.19824" width="1.66666" height="1.54962" fill="#11A729"/>
<rect x="20.5" y="7.74805" width="1.66666" height="1.54962" fill="#11A729"/>
<rect x="20.5" y="9.29785" width="1.66666" height="1.54962" fill="#11A729"/>
<rect x="22.168" y="9.29785" width="1.66667" height="1.54962" fill="#11A729"/>
<rect x="22.168" y="10.8467" width="1.66667" height="1.54962" fill="#11A729"/>
<rect x="23.832" y="10.8467" width="1.66667" height="1.54962" fill="#11A729"/>
<rect x="23.832" y="12.3975" width="1.66667" height="1.54962" fill="#11A729"/>
<rect x="23.832" y="13.9463" width="1.66667" height="1.54962" fill="#11A729"/>
<rect x="22.168" y="13.9463" width="1.66667" height="1.54962" fill="#11A729"/>
<rect x="23.832" y="1.54883" width="1.66667" height="1.54962" fill="#11A729"/>
<rect x="23.832" y="4.64844" width="1.66667" height="1.54962" fill="#11A729"/>
<rect x="22.168" y="6.19824" width="1.66667" height="1.54962" fill="#11A729"/>
<rect x="23.832" y="3.09961" width="1.66667" height="1.54962" fill="#11A729"/>
</svg>
