<svg width="13" height="12" viewBox="0 0 13 12" fill="none" xmlns="http://www.w3.org/2000/svg">
<path d="M10.9997 2.4997L1.99971 2.4997C1.90859 2.49999 1.81928 2.52512 1.74138 2.57239C1.66348 2.61966 1.59994 2.68729 1.55762 2.76798C1.51529 2.84867 1.49577 2.93938 1.50116 3.03034C1.50655 3.12131 1.53665 3.20907 1.58821 3.2842L6.08821 9.7842C6.27471 10.0537 6.72371 10.0537 6.91071 9.7842L11.4107 3.2842C11.4628 3.20923 11.4933 3.12142 11.499 3.0303C11.5047 2.93919 11.4853 2.84826 11.443 2.7674C11.4006 2.68653 11.3369 2.61883 11.2587 2.57163C11.1806 2.52444 11.091 2.49956 10.9997 2.4997Z" fill="#11A729"/>
</svg>
