<svg width="26" height="25" viewBox="0 0 26 25" fill="none" xmlns="http://www.w3.org/2000/svg">
<path d="M10 3.75H8.75V5H10V3.75Z" fill="#11A729"/>
<path d="M15 0H12.5V1.25H15V0Z" fill="#11A729"/>
<path d="M18.75 3.75H17.5V5H18.75V3.75Z" fill="#11A729"/>
<path d="M17.5 3.75V2.5H16.25V1.25H15V2.5H12.5V1.25H11.25V2.5H10V3.75H17.5Z" fill="#11A729"/>
<path d="M10 22.5H8.75V23.75H10V22.5Z" fill="#11A729"/>
<path d="M17.5 23.75H10V25H17.5V23.75Z" fill="#11A729"/>
<path d="M18.75 22.5H17.5V23.75H18.75V22.5Z" fill="#11A729"/>
<path d="M18.75 5V6.25H8.75V5H7.5V22.5H8.75V21.25H18.75V22.5H20V5H18.75ZM8.75 20V7.5H11.25V20H8.75ZM12.5 20V7.5H15V20H12.5ZM18.75 20H16.25V7.5H18.75V20Z" fill="#11A729"/>
</svg>
