<svg width="665" height="305" viewBox="0 0 665 305" fill="none" xmlns="http://www.w3.org/2000/svg">
<path fill-rule="evenodd" clip-rule="evenodd" d="M93.2469 14H71.495H49.7519H28.7916V27.8812H15V43.8559V263.137V278H28.7916V291H49.859H71.7093H93.5683H115.436H137.278H159.145H180.987H202.855H224.714H246.564H268.423H290.291H312.132H334H355.85H377.709H399.568H421.419H443.278H465.145H486.996H508.855H530.705H552.564H574.423H596.273H618.132H636V278H650V263.137V43.8559V27.8812H636V14H615.239H593.488H571.744H549.992H528.241H506.498H484.746H463.002H441.242H419.49H397.747H375.995H354.243H332.5H310.739H289.005H267.244H245.493H223.749H201.997H180.237H158.502H136.742H115.007H93.2469ZM650.792 27V14H637V0H615.239H593.488H571.744H549.992H528.241H506.498H484.746H463.002H441.242H419.49H397.747H375.995H354.243H332.5H310.739H289.005H267.244H245.493H223.749H201.997H180.237H158.502H136.742H115.007H93.2469H71.495H49.7519H28V14H14V27H0V43.8559V263.137V280H14V291.881H28V305H49.859H71.7093H93.5683H115.436H137.278H159.145H180.987H202.855H224.714H246.564H268.423H290.291H312.132H334H355.85H377.709H399.568H421.419H443.278H465.145H486.996H508.855H530.705H552.564H574.423H596.273H618.132H640V291.881H650.792V280H665V263.137V43.8559V27H650.792Z" fill="#3F3F3F"/>
</svg>
